HIERARCHY
ROOT Hips
{
 OFFSET 0.000000 0.000000 0.000000
 CHANNELS 6 Xposition Yposition Zposition Yrotation Xrotation Zrotation
 JOINT Chest
 {
  OFFSET 0.000000 10.366939 -0.000175
  CHANNELS 3 Yrotation Xrotation Zrotation
  JOINT Chest2
  {
   OFFSET 0.000000 11.433790 0.000318
   CHANNELS 3 Yrotation Xrotation Zrotation
   JOINT Chest3
   {
    OFFSET 0.000000 10.331133 0.000000
    CHANNELS 3 Yrotation Xrotation Zrotation
    JOINT Chest4
    {
     OFFSET 0.000000 10.331133 0.000000
     CHANNELS 3 Yrotation Xrotation Zrotation
     JOINT Neck
     {
      OFFSET 0.000000 14.530095 0.000000
      CHANNELS 3 Yrotation Xrotation Zrotation
      JOINT Head
      {
       OFFSET 0.000000 9.616255 0.000757
       CHANNELS 3 Yrotation Xrotation Zrotation
       End Site
       {
        OFFSET 0.000000 18.398191 0.000395
       }
      }
     }
     JOINT RightCollar
     {
      OFFSET -3.159467 8.107572 0.000000
      CHANNELS 3 Yrotation Xrotation Zrotation
      JOINT RightShoulder
      {
       OFFSET -14.759419 0.000000 0.000000
       CHANNELS 3 Yrotation Xrotation Zrotation
       JOINT RightElbow
       {
        OFFSET 0.000000 -31.561777 0.000000
        CHANNELS 3 Yrotation Xrotation Zrotation
        JOINT RightWrist
        {
         OFFSET 0.000000 -25.811607 0.000000
         CHANNELS 3 Yrotation Xrotation Zrotation
         End Site
         {
          OFFSET 0.000000 -19.296333 0.000000
         }
        }
       }
      }
     }
     JOINT LeftCollar
     {
      OFFSET 3.159467 8.107572 0.000000
      CHANNELS 3 Yrotation Xrotation Zrotation
      JOINT LeftShoulder
      {
       OFFSET 14.759419 0.000000 0.000000
       CHANNELS 3 Yrotation Xrotation Zrotation
       JOINT LeftElbow
       {
        OFFSET 0.000000 -31.561777 0.000000
        CHANNELS 3 Yrotation Xrotation Zrotation
        JOINT LeftWrist
        {
         OFFSET 0.000000 -25.811607 0.000000
         CHANNELS 3 Yrotation Xrotation Zrotation
         End Site
         {
          OFFSET 0.000000 -19.296333 0.000000
         }
        }
       }
      }
     }
    }
   }
  }
 }
 JOINT RightHip
 {
  OFFSET -8.420485 0.000859 0.000088
  CHANNELS 3 Yrotation Xrotation Zrotation
  JOINT RightKnee
  {
   OFFSET 0.000000 -43.611855 -0.000083
   CHANNELS 3 Yrotation Xrotation Zrotation
   JOINT RightAnkle
   {
    OFFSET 0.000000 -42.630478 -0.000140
    CHANNELS 3 Yrotation Xrotation Zrotation
    JOINT RightToe
    {
     OFFSET 0.000000 -7.539428 17.119853
     CHANNELS 3 Yrotation Xrotation Zrotation
     End Site
     {
      OFFSET 0.000000 -1.595212 6.940629
     }
    }
   }
  }
 }
 JOINT LeftHip
 {
  OFFSET 8.420485 0.000859 0.000088
  CHANNELS 3 Yrotation Xrotation Zrotation
  JOINT LeftKnee
  {
   OFFSET 0.000000 -43.611855 -0.000083
   CHANNELS 3 Yrotation Xrotation Zrotation
   JOINT LeftAnkle
   {
    OFFSET 0.000000 -42.630478 -0.000140
    CHANNELS 3 Yrotation Xrotation Zrotation
    JOINT LeftToe
    {
     OFFSET 0.000000 -7.539428 17.119853
     CHANNELS 3 Yrotation Xrotation Zrotation
     End Site
     {
      OFFSET 0.000000 -1.595212 6.940629
     }
    }
   }
  }
 }
}
MOTION
Frames: 9
Frame Time: 0.008333
334.144489 94.297369 81.990241 -68.085656 -9.642105 0.357552 1.202993 4.569707 0.337367 0.544398 2.051479 0.008514 0.544398 2.051479 0.008514 0.408226 1.538618 0.004557 -1.815067 15.655710 0.277012 -3.488637 -7.081754 1.186544 0.216157 3.081058 17.246998 -21.895563 -2.107328 -28.207742 19.184861 0.105508 -9.388982 12.543921 -13.949977 -8.954061 4.410262 5.236443 -3.821120 20.291020 -3.763236 3.480066 -31.624051 8.876941 14.845026 -13.799205 -18.274471 4.209608 -13.997119 8.888396 -11.102607 -9.456181 5.244372 -2.224127 1.269536 -3.815752 8.563905 0.449756 -0.118110 0.205485 8.942116 6.384767 9.681730 -1.456798 10.864723 1.272527 -0.117614 -7.835249 -8.768761 -0.283151 -0.512948 -0.119366
334.120771 94.289053 81.982867 -68.067963 -9.659005 0.355505 1.195773 4.546860 0.324942 0.542378 2.040150 0.002582 0.542378 2.040150 0.002582 0.406732 1.530116 0.000125 -1.814728 15.672623 0.289526 -3.492197 -7.049956 1.209235 0.215299 3.066507 17.240190 -22.035520 -2.030769 -28.190785 19.071564 -0.057809 -9.308758 12.518641 -13.963105 -8.971962 4.422578 5.225955 -3.816941 20.391849 -3.667375 3.512940 -31.771457 8.603906 14.668349 -13.849177 -18.001509 3.955235 -13.957177 8.953074 -11.082691 -9.494406 5.209736 -2.227385 1.251623 -3.844965 8.562886 0.440608 -0.094108 0.200346 8.954833 6.416387 9.697453 -1.460041 10.848027 1.268720 -0.140486 -7.849329 -8.775528 -0.279721 -0.502677 -0.116045
334.101201 94.281575 81.979040 -68.060409 -9.673507 0.352752 1.195809 4.522361 0.313097 0.543204 2.028455 -0.002175 0.543204 2.028455 -0.002175 0.407368 1.521340 -0.003435 -1.815583 15.691277 0.301809 -3.497848 -7.014902 1.231878 0.195656 3.051768 17.229838 -22.134540 -1.953206 -28.173983 18.945048 -0.211472 -9.232641 12.494519 -13.978762 -8.993842 4.423475 5.216904 -3.817927 20.480644 -3.590678 3.546069 -31.902610 8.413976 14.527200 -13.890808 -17.796339 3.677804 -13.901832 9.009184 -11.063911 -9.535317 5.184234 -2.227423 1.232787 -3.871145 8.565319 0.432181 -0.074338 0.193067 8.957119 6.444876 9.700455 -1.446991 10.839864 1.280315 -0.153856 -7.867479 -8.780665 -0.277893 -0.492276 -0.118075
334.086809 94.274609 81.977099 -68.057471 -9.682510 0.351927 1.196086 4.492020 0.298380 0.544249 2.014601 -0.008031 0.544249 2.014601 -0.008031 0.408172 1.510945 -0.007817 -1.816823 15.714134 0.314534 -3.504266 -6.972015 1.255347 0.191760 3.036334 17.234840 -22.226142 -1.887876 -28.167234 18.823238 -0.359881 -9.143971 12.467814 -14.000302 -9.008693 4.434372 5.212131 -3.816644 20.548373 -3.530603 3.574013 -32.024866 8.157140 14.321716 -13.965708 -17.518872 3.420029 -13.860121 9.051796 -11.053337 -9.569566 5.160222 -2.221813 1.230757 -3.894290 8.563618 0.422744 -0.055615 0.188002 8.938973 6.471051 9.698382 -1.425089 10.830917 1.284326 -0.155026 -7.886180 -8.781552 -0.273186 -0.479683 -0.118503
334.073737 94.268797 81.976890 -68.062616 -9.695399 0.351657 1.198823 4.463985 0.287237 0.546768 2.000310 -0.012686 0.546768 2.000310 -0.012686 0.410076 1.500222 -0.011304 -1.818766 15.744455 0.323189 -3.510301 -6.915383 1.271249 0.187543 3.024511 17.236689 -22.291161 -1.833358 -28.156398 18.706028 -0.494119 -9.073116 12.431684 -14.016269 -9.016495 4.453006 5.210864 -3.814243 20.594890 -3.470366 3.601483 -32.129680 7.959768 14.168915 -14.030911 -17.311641 3.162567 -13.829057 9.090588 -11.045277 -9.587749 5.141701 -2.216236 1.223366 -3.915264 8.556954 0.417389 -0.039901 0.186686 8.912527 6.506610 9.686063 -1.392962 10.817815 1.304951 -0.145063 -7.901691 -8.788946 -0.269941 -0.468496 -0.120160
334.064845 94.263592 81.978301 -68.068990 -9.703933 0.350028 1.200718 4.433785 0.275756 0.548787 1.985787 -0.016171 0.548787 1.985787 -0.016171 0.411601 1.489327 -0.013911 -1.821088 15.775510 0.331938 -3.517051 -6.857374 1.287432 0.189870 3.009392 17.238487 -22.340848 -1.789182 -28.139875 18.602732 -0.629955 -9.002260 12.395650 -14.037887 -9.013262 4.469558 5.210003 -3.821685 20.633166 -3.428466 3.626214 -32.247745 7.693685 13.967266 -14.124424 -17.048322 2.945730 -13.807526 9.119340 -11.036837 -9.603717 5.124767 -2.214890 1.228948 -3.932815 8.554167 0.410834 -0.027166 0.184326 8.860519 6.542162 9.671812 -1.341211 10.801590 1.319435 -0.131566 -7.916865 -8.792531 -0.264892 -0.455109 -0.120168
334.056343 94.259656 81.979967 -68.086186 -9.717223 0.345681 1.208321 4.405108 0.268513 0.553461 1.971167 -0.019282 0.553461 1.971167 -0.019282 0.415117 1.478359 -0.016246 -1.822015 15.810704 0.336578 -3.519581 -6.791855 1.295313 0.179231 2.999562 17.240346 -22.363784 -1.756263 -28.119305 18.512554 -0.745854 -8.947239 12.359180 -14.059491 -9.023230 4.474488 5.209328 -3.828112 20.660088 -3.388111 3.645960 -32.358659 7.505290 13.823462 -14.191214 -16.874177 2.735262 -13.792601 9.142409 -11.028015 -9.606389 5.120511 -2.214510 1.239514 -3.952184 8.547291 0.408871 -0.017897 0.184861 8.808436 6.582418 9.659835 -1.280188 10.789361 1.336127 -0.113458 -7.931036 -8.798079 -0.261448 -0.445156 -0.119338
334.051045 94.255864 81.982851 -68.107936 -9.724721 0.351734 1.217355 4.371335 0.254084 0.559344 1.954709 -0.025144 0.559344 1.954709 -0.025144 0.419548 1.466010 -0.020645 -1.823636 15.847735 0.343506 -3.524189 -6.722830 1.307646 0.169636 3.003856 17.254878 -22.364800 -1.747965 -28.097723 18.431149 -0.868297 -8.885191 12.323181 -14.077898 -9.021071 4.473822 5.221649 -3.831399 20.665526 -3.361357 3.653270 -32.464121 7.243078 13.633280 -14.284001 -16.645606 2.598254 -13.782665 9.157400 -11.033004 -9.600600 5.109632 -2.210140 1.257965 -3.968440 8.544687 0.402821 -0.007749 0.181531 8.752203 6.617233 9.637701 -1.221069 10.779080 1.347074 -0.092991 -7.942932 -8.801859 -0.257351 -0.438119 -0.116809
334.046850 94.253356 81.985740 -68.136037 -9.735541 0.355962 1.229383 4.345326 0.242174 0.565799 1.941977 -0.030986 0.565799 1.941977 -0.030986 0.424407 1.456455 -0.025036 -1.828249 15.882523 0.350796 -3.534555 -6.657871 1.321812 0.152311 3.001520 17.272802 -22.336871 -1.750633 -28.085582 18.355242 -0.961177 -8.848465 12.271913 -14.119254 -9.006068 4.481246 5.221936 -3.830733 20.652036 -3.339711 3.651283 -32.575086 7.057591 13.505404 -14.334855 -16.524522 2.473251 -13.770795 9.169225 -11.032523 -9.588418 5.107197 -2.211307 1.263325 -3.983136 8.541047 0.402497 -0.000620 0.180633 8.712266 6.654881 9.610770 -1.182481 10.766251 1.371354 -0.056717 -7.952671 -8.812286 -0.255440 -0.431833 -0.114636
